<mxfile host="app.diagrams.net" modified="2022-05-10T20:41:46.199Z" agent="5.0 (Macintosh; Intel Mac OS X 10_15_7) AppleWebKit/537.36 (KHTML, like Gecko) Chrome/100.0.4896.127 Safari/537.36" etag="Pl489BDovPQfrWbSVmBQ" version="16.5.4" type="github">
  <diagram id="ocjEKwFpsV1IeR2hr5S3" name="Page-1">
    <mxGraphModel dx="2471" dy="2086" grid="1" gridSize="10" guides="1" tooltips="1" connect="1" arrows="1" fold="1" page="1" pageScale="1" pageWidth="850" pageHeight="1100" math="0" shadow="0">
      <root>
        <mxCell id="0" />
        <mxCell id="1" parent="0" />
        <mxCell id="KKFM_KyTwlKslKXIKcW2-42" value="" style="rounded=1;whiteSpace=wrap;html=1;strokeColor=#000000;fillColor=#E6E6E6;arcSize=7;fontSize=11;glass=0;noLabel=0;fillOpacity=50;" parent="1" vertex="1">
          <mxGeometry x="-820" y="-924.531347820398" width="813.71" height="513.9250953670247" as="geometry" />
        </mxCell>
        <mxCell id="KKFM_KyTwlKslKXIKcW2-12" value="" style="rounded=1;whiteSpace=wrap;html=1;strokeColor=#98B5FF;fontSize=11;fillColor=#DBE5FF;fillOpacity=50;" parent="1" vertex="1">
          <mxGeometry x="-802.5694752631579" y="-718.9613096735882" width="102.78442105263157" height="205.3730335269192" as="geometry" />
        </mxCell>
        <mxCell id="9TntlFMedyVJn60BAklY-58" value="" style="rounded=1;whiteSpace=wrap;html=1;strokeColor=#DC267F;fontSize=11;fillColor=#DD83AE;fillOpacity=50;" parent="1" vertex="1">
          <mxGeometry x="-255.20817168421047" y="-718.9613096735882" width="239.83031578947367" height="205.3730335269192" as="geometry" />
        </mxCell>
        <mxCell id="fXf3r-uobzJEQX9jouKG-5" value="P0" style="ellipse;whiteSpace=wrap;html=1;fontSize=11;" parent="1" vertex="1">
          <mxGeometry x="-770.8534149394737" y="-908.1644540174932" width="35.55784219473684" height="35.55806065242117" as="geometry" />
        </mxCell>
        <mxCell id="fXf3r-uobzJEQX9jouKG-9" value="P0" style="ellipse;whiteSpace=wrap;html=1;fontSize=11;" parent="1" vertex="1">
          <mxGeometry x="-769.519995857171" y="-805.7729811882882" width="35.55784219473684" height="35.55806065242117" as="geometry" />
        </mxCell>
        <mxCell id="fXf3r-uobzJEQX9jouKG-16" value="" style="endArrow=classic;html=1;fontSize=11;" parent="1" source="fXf3r-uobzJEQX9jouKG-5" target="fXf3r-uobzJEQX9jouKG-10" edge="1">
          <mxGeometry x="-1068.3956842105263" y="-1028.1729087194146" width="42.82684210526316" height="42.827091280585385" as="geometry">
            <mxPoint x="-729.2627642782237" y="-819.2693023864402" as="sourcePoint" />
            <mxPoint x="-724.8180340038816" y="-725.9293931738347" as="targetPoint" />
            <Array as="points">
              <mxPoint x="-615.2876947368421" y="-821.7463287469931" />
            </Array>
          </mxGeometry>
        </mxCell>
        <mxCell id="fXf3r-uobzJEQX9jouKG-17" value="" style="endArrow=classic;html=1;fontSize=11;" parent="1" source="fXf3r-uobzJEQX9jouKG-5" target="fXf3r-uobzJEQX9jouKG-11" edge="1">
          <mxGeometry x="-1068.3956842105263" y="-1028.1729087194146" width="42.82684210526316" height="42.827091280585385" as="geometry">
            <mxPoint x="-729.2627642782237" y="-819.2693023864402" as="sourcePoint" />
            <mxPoint x="-680.3707312604605" y="-730.3741507553873" as="targetPoint" />
            <Array as="points">
              <mxPoint x="-545.9082105263158" y="-830.3117470031101" />
            </Array>
          </mxGeometry>
        </mxCell>
        <mxCell id="fXf3r-uobzJEQX9jouKG-19" value="" style="endArrow=classic;html=1;fontSize=11;" parent="1" source="fXf3r-uobzJEQX9jouKG-5" target="fXf3r-uobzJEQX9jouKG-12" edge="1">
          <mxGeometry x="-1068.3956842105263" y="-1028.1729087194146" width="42.82684210526316" height="42.827091280585385" as="geometry">
            <mxPoint x="-716.6911686080939" y="-820.0319022245134" as="sourcePoint" />
            <mxPoint x="-564.8077441275658" y="-757.0426962447032" as="targetPoint" />
            <Array as="points">
              <mxPoint x="-477.3852631578947" y="-838.8771652592272" />
            </Array>
          </mxGeometry>
        </mxCell>
        <mxCell id="fXf3r-uobzJEQX9jouKG-21" value="" style="endArrow=classic;html=1;fontSize=11;" parent="1" source="fXf3r-uobzJEQX9jouKG-5" target="fXf3r-uobzJEQX9jouKG-9" edge="1">
          <mxGeometry x="-1108.6529157894738" y="-1028.1729087194146" width="42.82684210526316" height="42.827091280585385" as="geometry">
            <mxPoint x="-716.1832325650657" y="-819.2693023864402" as="sourcePoint" />
            <mxPoint x="-751.7410747598026" y="-783.711241734019" as="targetPoint" />
          </mxGeometry>
        </mxCell>
        <mxCell id="fXf3r-uobzJEQX9jouKG-22" value="BayesLine Step" style="rounded=0;whiteSpace=wrap;html=1;fontSize=10;fillColor=#fff2cc;" parent="1" vertex="1">
          <mxGeometry x="-777.6976046964473" y="-702.8076253359234" width="52.44781723723684" height="35.55806065242117" as="geometry" />
        </mxCell>
        <mxCell id="fXf3r-uobzJEQX9jouKG-26" value="P4" style="ellipse;whiteSpace=wrap;html=1;fontSize=11;" parent="1" vertex="1">
          <mxGeometry x="-355.4859055482895" y="-1028.1729087194146" width="35.55784219473684" height="35.55806065242117" as="geometry" />
        </mxCell>
        <mxCell id="fXf3r-uobzJEQX9jouKG-27" value="P3" style="ellipse;whiteSpace=wrap;html=1;fontSize=11;" parent="1" vertex="1">
          <mxGeometry x="-422.88422004302635" y="-1028.1729087194146" width="35.55784219473684" height="35.55806065242117" as="geometry" />
        </mxCell>
        <mxCell id="fXf3r-uobzJEQX9jouKG-28" value="&lt;font style=&quot;font-size: 11px&quot;&gt;P2&lt;/font&gt;" style="ellipse;whiteSpace=wrap;html=1;fontSize=11;" parent="1" vertex="1">
          <mxGeometry x="-491.90995453776316" y="-1028.1729087194146" width="35.55784219473684" height="35.55806065242117" as="geometry" />
        </mxCell>
        <mxCell id="fXf3r-uobzJEQX9jouKG-29" value="&lt;font style=&quot;font-size: 11px;&quot;&gt;P0&lt;/font&gt;" style="ellipse;whiteSpace=wrap;html=1;fontSize=11;" parent="1" vertex="1">
          <mxGeometry x="-770.8534149394737" y="-1045.3037452316487" width="35.55784219473684" height="35.55806065242117" as="geometry" />
        </mxCell>
        <mxCell id="fXf3r-uobzJEQX9jouKG-30" value="Read Data" style="rounded=0;whiteSpace=wrap;html=1;fontSize=10;fillColor=#fff2cc;" parent="1" vertex="1">
          <mxGeometry x="-779.110890485921" y="-976.7801676849214" width="52.44781723723684" height="35.55806065242117" as="geometry" />
        </mxCell>
        <mxCell id="fXf3r-uobzJEQX9jouKG-31" value="" style="endArrow=classic;html=1;entryX=0.5;entryY=0;entryDx=0;entryDy=0;fontSize=11;" parent="1" source="fXf3r-uobzJEQX9jouKG-29" target="fXf3r-uobzJEQX9jouKG-30" edge="1">
          <mxGeometry x="-1108.6529157894738" y="-1028.1729087194146" width="42.82684210526316" height="42.827091280585385" as="geometry">
            <mxPoint x="-637.5115067092105" y="-819.2693023864402" as="sourcePoint" />
            <mxPoint x="-615.2878553374999" y="-841.4930902942035" as="targetPoint" />
          </mxGeometry>
        </mxCell>
        <mxCell id="fXf3r-uobzJEQX9jouKG-32" value="" style="endArrow=classic;html=1;exitX=0.5;exitY=1;exitDx=0;exitDy=0;fontSize=11;" parent="1" source="fXf3r-uobzJEQX9jouKG-30" target="fXf3r-uobzJEQX9jouKG-5" edge="1">
          <mxGeometry x="-1108.6529157894738" y="-1028.1729087194146" width="42.82684210526316" height="42.827091280585385" as="geometry">
            <mxPoint x="-637.5115067092105" y="-805.9350296417823" as="sourcePoint" />
            <mxPoint x="-615.2878553374999" y="-828.1588175495456" as="targetPoint" />
          </mxGeometry>
        </mxCell>
        <mxCell id="fXf3r-uobzJEQX9jouKG-42" value="" style="endArrow=classic;html=1;exitX=0.5;exitY=1;exitDx=0;exitDy=0;fontSize=11;" parent="1" source="fXf3r-uobzJEQX9jouKG-22" target="fXf3r-uobzJEQX9jouKG-100" edge="1">
          <mxGeometry x="-1107.4965910526316" y="-1040.6184614455526" width="42.82684210526316" height="42.827091280585385" as="geometry">
            <mxPoint x="-654.1341030697367" y="-657.4803579157146" as="sourcePoint" />
            <mxPoint x="-751.9181691052631" y="-621.9222972632933" as="targetPoint" />
          </mxGeometry>
        </mxCell>
        <mxCell id="fXf3r-uobzJEQX9jouKG-63" value="" style="endArrow=classic;html=1;entryX=0.5;entryY=0;entryDx=0;entryDy=0;fontSize=11;" parent="1" source="fXf3r-uobzJEQX9jouKG-9" target="fXf3r-uobzJEQX9jouKG-22" edge="1">
          <mxGeometry x="-1108.6529157894738" y="-1032.4556178474731" as="geometry">
            <mxPoint x="-753.0744938421053" y="-702.6546052962668" as="sourcePoint" />
            <mxPoint x="-637.5115067092105" y="-604.8699385021087" as="targetPoint" />
          </mxGeometry>
        </mxCell>
        <mxCell id="KKFM_KyTwlKslKXIKcW2-18" style="edgeStyle=orthogonalEdgeStyle;rounded=0;jumpStyle=gap;orthogonalLoop=1;jettySize=auto;html=1;fontSize=11;" parent="1" source="fXf3r-uobzJEQX9jouKG-100" edge="1">
          <mxGeometry x="-1107.4965910526316" y="-1040.6184614455526" as="geometry">
            <Array as="points">
              <mxPoint x="-794.3038947368422" y="-543.370235423188" />
              <mxPoint x="-794.3038947368422" y="-684.6996366491198" />
            </Array>
            <mxPoint x="-777.1731578947368" y="-684.6996366491198" as="targetPoint" />
          </mxGeometry>
        </mxCell>
        <mxCell id="fXf3r-uobzJEQX9jouKG-100" value="P0" style="ellipse;whiteSpace=wrap;html=1;fontSize=11;" parent="1" vertex="1">
          <mxGeometry x="-769.5086520973684" y="-566.094058558876" width="35.55784219473684" height="35.55806065242117" as="geometry" />
        </mxCell>
        <mxCell id="fXf3r-uobzJEQX9jouKG-116" value="P0" style="ellipse;whiteSpace=wrap;html=1;fontSize=11;" parent="1" vertex="1">
          <mxGeometry x="-770.3651889394737" y="-463.024065705112" width="35.55784219473684" height="35.55806065242117" as="geometry" />
        </mxCell>
        <mxCell id="fXf3r-uobzJEQX9jouKG-117" value="" style="endArrow=classic;html=1;fontSize=11;" parent="1" source="fXf3r-uobzJEQX9jouKG-100" target="fXf3r-uobzJEQX9jouKG-116" edge="1">
          <mxGeometry x="-1108.1646897894739" y="-1138.1271828731897" width="42.82684210526316" height="42.827091280585385" as="geometry">
            <mxPoint x="-668.1363926296052" y="-603.8673215705614" as="sourcePoint" />
            <mxPoint x="-645.9127412578946" y="-626.0911094783247" as="targetPoint" />
          </mxGeometry>
        </mxCell>
        <mxCell id="fXf3r-uobzJEQX9jouKG-129" value="P3" style="ellipse;whiteSpace=wrap;html=1;fontSize=11;" parent="1" vertex="1">
          <mxGeometry x="-427.74335354828946" y="-360.3247008142682" width="35.55784219473684" height="35.55806065242117" as="geometry" />
        </mxCell>
        <mxCell id="fXf3r-uobzJEQX9jouKG-130" value="P2" style="ellipse;whiteSpace=wrap;html=1;fontSize=11;" parent="1" vertex="1">
          <mxGeometry x="-496.2894274114473" y="-360.3247008142682" width="35.55784219473684" height="35.55806065242117" as="geometry" />
        </mxCell>
        <mxCell id="fXf3r-uobzJEQX9jouKG-131" value="P1" style="ellipse;whiteSpace=wrap;html=1;fontSize=11;" parent="1" vertex="1">
          <mxGeometry x="-632.8102650640789" y="-362.63736374341977" width="35.55784219473684" height="35.55806065242117" as="geometry" />
        </mxCell>
        <mxCell id="9TntlFMedyVJn60BAklY-5" value="P5" style="ellipse;whiteSpace=wrap;html=1;fontSize=11;" parent="1" vertex="1">
          <mxGeometry x="-216.52838653388153" y="-1028.1729087194146" width="35.55784219473684" height="35.55806065242117" as="geometry" />
        </mxCell>
        <mxCell id="9TntlFMedyVJn60BAklY-6" value="P6" style="ellipse;whiteSpace=wrap;html=1;fontSize=11;" parent="1" vertex="1">
          <mxGeometry x="-148.46197330230257" y="-1028.1729087194146" width="35.55784219473684" height="35.55806065242117" as="geometry" />
        </mxCell>
        <mxCell id="9TntlFMedyVJn60BAklY-7" value="P7" style="ellipse;whiteSpace=wrap;html=1;fontSize=11;" parent="1" vertex="1">
          <mxGeometry x="-79.34201975493431" y="-1028.1729087194146" width="35.55784219473684" height="35.55806065242117" as="geometry" />
        </mxCell>
        <mxCell id="9TntlFMedyVJn60BAklY-16" value="" style="endArrow=classic;html=1;labelBackgroundColor=none;fontSize=11;" parent="1" source="fXf3r-uobzJEQX9jouKG-5" target="9TntlFMedyVJn60BAklY-12" edge="1">
          <mxGeometry x="-1063.2564631578948" y="-1028.1729087194146" width="42.82684210526316" height="42.827091280585385" as="geometry">
            <mxPoint x="-926.358770708158" y="-783.711241734019" as="sourcePoint" />
            <mxPoint x="-904.1351193364474" y="-805.9350296417823" as="targetPoint" />
            <Array as="points">
              <mxPoint x="-340.33936842105265" y="-838.8771652592272" />
            </Array>
          </mxGeometry>
        </mxCell>
        <mxCell id="9TntlFMedyVJn60BAklY-17" value="" style="endArrow=classic;html=1;labelBackgroundColor=none;fontSize=11;" parent="1" source="fXf3r-uobzJEQX9jouKG-5" target="9TntlFMedyVJn60BAklY-13" edge="1">
          <mxGeometry x="-1063.2564631578948" y="-1028.1729087194146" width="42.82684210526316" height="42.827091280585385" as="geometry">
            <mxPoint x="-926.358770708158" y="-783.711241734019" as="sourcePoint" />
            <mxPoint x="-904.1351193364474" y="-805.9350296417823" as="targetPoint" />
            <Array as="points">
              <mxPoint x="-271.81642105263154" y="-856.0080017714613" />
            </Array>
          </mxGeometry>
        </mxCell>
        <mxCell id="9TntlFMedyVJn60BAklY-18" value="" style="endArrow=classic;html=1;labelBackgroundColor=none;fontSize=11;" parent="1" source="fXf3r-uobzJEQX9jouKG-5" target="9TntlFMedyVJn60BAklY-14" edge="1">
          <mxGeometry x="-1063.2564631578948" y="-1028.1729087194146" width="42.82684210526316" height="42.827091280585385" as="geometry">
            <mxPoint x="-926.358770708158" y="-783.711241734019" as="sourcePoint" />
            <mxPoint x="-904.1351193364474" y="-805.9350296417823" as="targetPoint" />
            <Array as="points">
              <mxPoint x="-203.29347368421054" y="-873.1388382836955" />
            </Array>
          </mxGeometry>
        </mxCell>
        <mxCell id="9TntlFMedyVJn60BAklY-20" value="MBHMCMC Step" style="rounded=0;whiteSpace=wrap;html=1;fontSize=10;fillColor=#fff2cc;" parent="1" vertex="1">
          <mxGeometry x="-229.71094892243423" y="-702.8076253359234" width="52.44781723723684" height="35.55806065242117" as="geometry" />
        </mxCell>
        <mxCell id="9TntlFMedyVJn60BAklY-21" value="MBHMCMC Step" style="rounded=0;whiteSpace=wrap;html=1;fontSize=10;fillColor=#fff2cc;" parent="1" vertex="1">
          <mxGeometry x="-161.16487505927637" y="-702.8076253359234" width="52.44781723723684" height="35.55806065242117" as="geometry" />
        </mxCell>
        <mxCell id="9TntlFMedyVJn60BAklY-22" value="MBHMCMC Step" style="rounded=0;whiteSpace=wrap;html=1;fontSize=10;fillColor=#fff2cc;" parent="1" vertex="1">
          <mxGeometry x="-92.6188011961184" y="-702.8076253359234" width="52.44781723723684" height="35.55806065242117" as="geometry" />
        </mxCell>
        <mxCell id="9TntlFMedyVJn60BAklY-29" value="" style="endArrow=classic;html=1;labelBackgroundColor=none;fontSize=11;entryX=0.5;entryY=0;entryDx=0;entryDy=0;" parent="1" source="9TntlFMedyVJn60BAklY-12" target="9TntlFMedyVJn60BAklY-20" edge="1">
          <mxGeometry x="-313.9837297894737" y="-1032.4556178474731" width="42.82684210526316" height="42.827091280585385" as="geometry">
            <mxPoint x="-205.08783806809208" y="-702.6546052962668" as="sourcePoint" />
            <mxPoint x="-80.63539038651322" y="-631.5384839914245" as="targetPoint" />
          </mxGeometry>
        </mxCell>
        <mxCell id="9TntlFMedyVJn60BAklY-30" value="" style="endArrow=classic;html=1;labelBackgroundColor=none;fontSize=11;entryX=0.5;entryY=0;entryDx=0;entryDy=0;" parent="1" source="9TntlFMedyVJn60BAklY-13" target="9TntlFMedyVJn60BAklY-21" edge="1">
          <mxGeometry x="-316.5533403157895" y="-1032.4556178474731" width="42.82684210526316" height="42.827091280585385" as="geometry">
            <mxPoint x="-136.54176420493434" y="-702.6546052962668" as="sourcePoint" />
            <mxPoint x="-83.20500091282895" y="-631.5384839914245" as="targetPoint" />
          </mxGeometry>
        </mxCell>
        <mxCell id="9TntlFMedyVJn60BAklY-31" value="" style="endArrow=classic;html=1;labelBackgroundColor=none;fontSize=11;entryX=0.5;entryY=0;entryDx=0;entryDy=0;" parent="1" source="9TntlFMedyVJn60BAklY-14" target="9TntlFMedyVJn60BAklY-22" edge="1">
          <mxGeometry x="-319.1229508421053" y="-1032.4556178474731" width="42.82684210526316" height="42.827091280585385" as="geometry">
            <mxPoint x="-67.99569034177637" y="-702.6546052962668" as="sourcePoint" />
            <mxPoint x="-85.77461143914479" y="-631.5384839914245" as="targetPoint" />
          </mxGeometry>
        </mxCell>
        <mxCell id="9TntlFMedyVJn60BAklY-55" style="edgeStyle=orthogonalEdgeStyle;rounded=0;orthogonalLoop=1;jettySize=auto;html=1;entryX=0;entryY=0.5;entryDx=0;entryDy=0;labelBackgroundColor=none;fontSize=11;" parent="1" source="9TntlFMedyVJn60BAklY-34" target="9TntlFMedyVJn60BAklY-20" edge="1">
          <mxGeometry x="-312.8274050526315" y="-1040.6184614455526" as="geometry">
            <Array as="points">
              <mxPoint x="-244.07319273684197" y="-543.2845812406268" />
              <mxPoint x="-244.07319273684197" y="-684.6139824665586" />
              <mxPoint x="-229.5120664210525" y="-684.6139824665586" />
            </Array>
          </mxGeometry>
        </mxCell>
        <mxCell id="9TntlFMedyVJn60BAklY-34" value="P5" style="ellipse;whiteSpace=wrap;html=1;fontSize=11;" parent="1" vertex="1">
          <mxGeometry x="-221.5219963233552" y="-566.094058558876" width="35.55784219473684" height="35.55806065242117" as="geometry" />
        </mxCell>
        <mxCell id="9TntlFMedyVJn60BAklY-56" style="edgeStyle=orthogonalEdgeStyle;rounded=0;orthogonalLoop=1;jettySize=auto;html=1;entryX=1;entryY=0.5;entryDx=0;entryDy=0;labelBackgroundColor=none;fontSize=11;" parent="1" source="9TntlFMedyVJn60BAklY-35" target="9TntlFMedyVJn60BAklY-21" edge="1">
          <mxGeometry x="-315.3970155789473" y="-1040.6184614455526" as="geometry">
            <Array as="points">
              <mxPoint x="-95.03578221052635" y="-543.2845812406268" />
              <mxPoint x="-95.03578221052635" y="-684.6139824665586" />
            </Array>
          </mxGeometry>
        </mxCell>
        <mxCell id="9TntlFMedyVJn60BAklY-35" value="P6" style="ellipse;whiteSpace=wrap;html=1;fontSize=11;" parent="1" vertex="1">
          <mxGeometry x="-152.97592246019735" y="-566.094058558876" width="35.55784219473684" height="35.55806065242117" as="geometry" />
        </mxCell>
        <mxCell id="9TntlFMedyVJn60BAklY-57" style="edgeStyle=orthogonalEdgeStyle;rounded=0;orthogonalLoop=1;jettySize=auto;html=1;entryX=1;entryY=0.5;entryDx=0;entryDy=0;labelBackgroundColor=none;fontSize=11;" parent="1" source="9TntlFMedyVJn60BAklY-36" target="9TntlFMedyVJn60BAklY-22" edge="1">
          <mxGeometry x="-317.96662610526306" y="-1040.6184614455526" as="geometry">
            <Array as="points">
              <mxPoint x="-26.512834842105235" y="-543.2845812406268" />
              <mxPoint x="-26.512834842105235" y="-684.6139824665586" />
              <mxPoint x="-40.21742431578946" y="-684.6139824665586" />
            </Array>
          </mxGeometry>
        </mxCell>
        <mxCell id="9TntlFMedyVJn60BAklY-36" value="P7" style="ellipse;whiteSpace=wrap;html=1;fontSize=11;" parent="1" vertex="1">
          <mxGeometry x="-84.4298485970395" y="-566.094058558876" width="35.55784219473684" height="35.55806065242117" as="geometry" />
        </mxCell>
        <mxCell id="9TntlFMedyVJn60BAklY-38" value="P4" style="ellipse;whiteSpace=wrap;html=1;fontSize=11;" parent="1" vertex="1">
          <mxGeometry x="-358.61071790230255" y="-360.3247008142682" width="35.55784219473684" height="35.55806065242117" as="geometry" />
        </mxCell>
        <mxCell id="9TntlFMedyVJn60BAklY-39" value="P5" style="ellipse;whiteSpace=wrap;html=1;fontSize=11;" parent="1" vertex="1">
          <mxGeometry x="-221.67874256546054" y="-360.3247008142682" width="35.55784219473684" height="35.55806065242117" as="geometry" />
        </mxCell>
        <mxCell id="9TntlFMedyVJn60BAklY-40" value="P6" style="ellipse;whiteSpace=wrap;html=1;fontSize=11;" parent="1" vertex="1">
          <mxGeometry x="-153.13266870230268" y="-360.3247008142682" width="35.55784219473684" height="35.55806065242117" as="geometry" />
        </mxCell>
        <mxCell id="9TntlFMedyVJn60BAklY-43" value="" style="endArrow=classic;html=1;labelBackgroundColor=none;fontSize=11;exitX=0.5;exitY=1;exitDx=0;exitDy=0;" parent="1" source="9TntlFMedyVJn60BAklY-20" target="9TntlFMedyVJn60BAklY-34" edge="1">
          <mxGeometry x="-312.8274050526315" y="-1040.6184614455526" as="geometry">
            <mxPoint x="-150.59475003914474" y="-568.5852062846617" as="sourcePoint" />
            <mxPoint x="-106.14744729572374" y="-568.5852062846617" as="targetPoint" />
          </mxGeometry>
        </mxCell>
        <mxCell id="9TntlFMedyVJn60BAklY-45" value="" style="endArrow=classic;html=1;labelBackgroundColor=none;fontSize=11;exitX=0.5;exitY=1;exitDx=0;exitDy=0;" parent="1" source="9TntlFMedyVJn60BAklY-21" target="9TntlFMedyVJn60BAklY-35" edge="1">
          <mxGeometry x="-315.3970155789473" y="-1040.6184614455526" as="geometry">
            <mxPoint x="-153.16436056546047" y="-568.5852062846617" as="sourcePoint" />
            <mxPoint x="-108.71705782203946" y="-568.5852062846617" as="targetPoint" />
          </mxGeometry>
        </mxCell>
        <mxCell id="9TntlFMedyVJn60BAklY-47" value="" style="endArrow=classic;html=1;labelBackgroundColor=none;fontSize=11;exitX=0.5;exitY=1;exitDx=0;exitDy=0;" parent="1" source="9TntlFMedyVJn60BAklY-22" target="9TntlFMedyVJn60BAklY-36" edge="1">
          <mxGeometry x="-317.96662610526306" y="-1040.6184614455526" as="geometry">
            <mxPoint x="-155.7339710917763" y="-568.5852062846617" as="sourcePoint" />
            <mxPoint x="-111.2866683483553" y="-568.5852062846617" as="targetPoint" />
          </mxGeometry>
        </mxCell>
        <mxCell id="KKFM_KyTwlKslKXIKcW2-9" value="" style="endArrow=classic;html=1;jumpStyle=gap;fontSize=11;" parent="1" source="9TntlFMedyVJn60BAklY-34" target="fXf3r-uobzJEQX9jouKG-116" edge="1">
          <mxGeometry x="-1062.7682371578949" y="-1138.1271828731897" width="42.82684210526316" height="42.827091280585385" as="geometry">
            <mxPoint x="-289.38516942236845" y="-532.7512002657191" as="sourcePoint" />
            <mxPoint x="-267.16151805065783" y="-554.9749881734823" as="targetPoint" />
            <Array as="points">
              <mxPoint x="-340.33936842105265" y="-496.2604350145441" />
            </Array>
          </mxGeometry>
        </mxCell>
        <mxCell id="KKFM_KyTwlKslKXIKcW2-10" value="" style="endArrow=classic;html=1;jumpStyle=gap;fontSize=11;" parent="1" source="9TntlFMedyVJn60BAklY-35" target="fXf3r-uobzJEQX9jouKG-116" edge="1">
          <mxGeometry x="-1062.7682371578949" y="-1138.1271828731897" width="42.82684210526316" height="42.827091280585385" as="geometry">
            <mxPoint x="-289.38516942236845" y="-532.7512002657191" as="sourcePoint" />
            <mxPoint x="-267.16151805065783" y="-554.9749881734823" as="targetPoint" />
            <Array as="points">
              <mxPoint x="-271.81642105263154" y="-479.12959850230993" />
            </Array>
          </mxGeometry>
        </mxCell>
        <mxCell id="KKFM_KyTwlKslKXIKcW2-11" value="" style="endArrow=classic;html=1;jumpStyle=gap;fontSize=11;" parent="1" source="9TntlFMedyVJn60BAklY-36" target="fXf3r-uobzJEQX9jouKG-116" edge="1">
          <mxGeometry x="-1062.7682371578949" y="-1138.1271828731897" width="42.82684210526316" height="42.827091280585385" as="geometry">
            <mxPoint x="-289.38516942236845" y="-532.7512002657191" as="sourcePoint" />
            <mxPoint x="-267.16151805065783" y="-554.9749881734823" as="targetPoint" />
            <Array as="points">
              <mxPoint x="-203.29347368421054" y="-461.99876199007576" />
            </Array>
          </mxGeometry>
        </mxCell>
        <mxCell id="9TntlFMedyVJn60BAklY-1" value="" style="rounded=1;whiteSpace=wrap;html=1;strokeColor=#785EF0;fontSize=11;fillColor=#CDC2FF;fillOpacity=50;" parent="1" vertex="1">
          <mxGeometry x="-529.2999611578948" y="-718.9613096735882" width="239.83031578947367" height="207.60004227350962" as="geometry" />
        </mxCell>
        <mxCell id="fXf3r-uobzJEQX9jouKG-10" value="P2" style="ellipse;whiteSpace=wrap;html=1;fontSize=11;" parent="1" vertex="1">
          <mxGeometry x="-497.00056177125" y="-805.7729811882882" width="35.55784219473684" height="35.55806065242117" as="geometry" />
        </mxCell>
        <mxCell id="fXf3r-uobzJEQX9jouKG-11" value="P3" style="ellipse;whiteSpace=wrap;html=1;fontSize=11;" parent="1" vertex="1">
          <mxGeometry x="-427.5979510659869" y="-805.7729811882882" width="35.55784219473684" height="35.55806065242117" as="geometry" />
        </mxCell>
        <mxCell id="fXf3r-uobzJEQX9jouKG-12" value="P4" style="ellipse;whiteSpace=wrap;html=1;fontSize=11;" parent="1" vertex="1">
          <mxGeometry x="-359.05187720282896" y="-805.7729811882882" width="35.55784219473684" height="35.55806065242117" as="geometry" />
        </mxCell>
        <mxCell id="fXf3r-uobzJEQX9jouKG-23" value="GBMCMC Step" style="rounded=0;whiteSpace=wrap;html=1;fontSize=10;fillColor=#fff2cc;" parent="1" vertex="1">
          <mxGeometry x="-505.1781706105263" y="-702.8076253359234" width="52.44781723723684" height="35.55806065242117" as="geometry" />
        </mxCell>
        <mxCell id="fXf3r-uobzJEQX9jouKG-24" value="GBMCMC Step" style="rounded=0;whiteSpace=wrap;html=1;fontSize=10;fillColor=#fff2cc;" parent="1" vertex="1">
          <mxGeometry x="-435.7755599052632" y="-702.8076253359234" width="52.44781723723684" height="35.55806065242117" as="geometry" />
        </mxCell>
        <mxCell id="fXf3r-uobzJEQX9jouKG-25" value="GBMCMC Step" style="rounded=0;whiteSpace=wrap;html=1;fontSize=10;fillColor=#fff2cc;" parent="1" vertex="1">
          <mxGeometry x="-367.2294860421053" y="-702.8076253359234" width="52.44781723723684" height="35.55806065242117" as="geometry" />
        </mxCell>
        <mxCell id="fXf3r-uobzJEQX9jouKG-33" value="P4" style="ellipse;whiteSpace=wrap;html=1;fontSize=11;" parent="1" vertex="1">
          <mxGeometry x="-358.3724347061842" y="-634.0527814962809" width="35.55784219473684" height="35.55806065242117" as="geometry" />
        </mxCell>
        <mxCell id="fXf3r-uobzJEQX9jouKG-34" value="P3" style="ellipse;whiteSpace=wrap;html=1;fontSize=11;" parent="1" vertex="1">
          <mxGeometry x="-427.7750454114474" y="-634.0527814962809" width="35.55784219473684" height="35.55806065242117" as="geometry" />
        </mxCell>
        <mxCell id="fXf3r-uobzJEQX9jouKG-35" value="P2" style="ellipse;whiteSpace=wrap;html=1;fontSize=11;" parent="1" vertex="1">
          <mxGeometry x="-497.1776561167105" y="-634.0527814962809" width="35.55784219473684" height="35.55806065242117" as="geometry" />
        </mxCell>
        <mxCell id="fXf3r-uobzJEQX9jouKG-43" value="" style="endArrow=classic;html=1;exitX=0.5;exitY=1;exitDx=0;exitDy=0;fontSize=11;" parent="1" source="fXf3r-uobzJEQX9jouKG-23" target="fXf3r-uobzJEQX9jouKG-35" edge="1">
          <mxGeometry x="-931.8722769473685" y="-1037.1922941431058" width="42.82684210526316" height="42.827091280585385" as="geometry">
            <mxPoint x="-478.9542619919077" y="-651.8318118224913" as="sourcePoint" />
            <mxPoint x="-430.5067020015789" y="-691.8346300564652" as="targetPoint" />
          </mxGeometry>
        </mxCell>
        <mxCell id="fXf3r-uobzJEQX9jouKG-47" value="" style="endArrow=classic;html=1;exitX=0.5;exitY=1;exitDx=0;exitDy=0;entryX=0.5;entryY=0;entryDx=0;entryDy=0;fontSize=11;" parent="1" source="fXf3r-uobzJEQX9jouKG-24" target="fXf3r-uobzJEQX9jouKG-34" edge="1">
          <mxGeometry x="-933.5853506315791" y="-1037.1922941431058" width="42.82684210526316" height="42.827091280585385" as="geometry">
            <mxPoint x="-409.55165128664487" y="-651.8318118224913" as="sourcePoint" />
            <mxPoint x="-432.21977568578944" y="-691.8346300564652" as="targetPoint" />
          </mxGeometry>
        </mxCell>
        <mxCell id="fXf3r-uobzJEQX9jouKG-48" value="" style="endArrow=classic;html=1;exitX=0.5;exitY=1;exitDx=0;exitDy=0;fontSize=11;" parent="1" source="fXf3r-uobzJEQX9jouKG-25" target="fXf3r-uobzJEQX9jouKG-33" edge="1">
          <mxGeometry x="-936.1549611578948" y="-1037.1922941431058" width="42.82684210526316" height="42.827091280585385" as="geometry">
            <mxPoint x="-341.00557742348695" y="-651.8318118224913" as="sourcePoint" />
            <mxPoint x="-434.7893862121052" y="-691.8346300564652" as="targetPoint" />
          </mxGeometry>
        </mxCell>
        <mxCell id="fXf3r-uobzJEQX9jouKG-75" value="" style="endArrow=classic;html=1;fontSize=11;" parent="1" source="fXf3r-uobzJEQX9jouKG-10" target="fXf3r-uobzJEQX9jouKG-23" edge="1">
          <mxGeometry x="-933.0286016842106" y="-1032.4556178474731" as="geometry">
            <mxPoint x="-480.5550597561842" y="-702.6546052962668" as="sourcePoint" />
            <mxPoint x="-480.6306201708481" y="-635.9832415729771" as="targetPoint" />
          </mxGeometry>
        </mxCell>
        <mxCell id="fXf3r-uobzJEQX9jouKG-77" value="" style="endArrow=classic;html=1;entryX=0.5;entryY=0;entryDx=0;entryDy=0;fontSize=11;" parent="1" source="fXf3r-uobzJEQX9jouKG-11" target="fXf3r-uobzJEQX9jouKG-24" edge="1">
          <mxGeometry x="-934.741675368421" y="-1032.4556178474731" as="geometry">
            <mxPoint x="-411.1524490509211" y="-702.6546052962668" as="sourcePoint" />
            <mxPoint x="-411.2280094655849" y="-635.9832415729771" as="targetPoint" />
          </mxGeometry>
        </mxCell>
        <mxCell id="fXf3r-uobzJEQX9jouKG-79" value="" style="endArrow=classic;html=1;entryX=0.5;entryY=0;entryDx=0;entryDy=0;fontSize=11;" parent="1" source="fXf3r-uobzJEQX9jouKG-12" target="fXf3r-uobzJEQX9jouKG-25" edge="1">
          <mxGeometry x="-937.3112858947369" y="-1032.4556178474731" as="geometry">
            <mxPoint x="-342.6063751877632" y="-702.6546052962668" as="sourcePoint" />
            <mxPoint x="-342.6819356024271" y="-635.9832415729771" as="targetPoint" />
          </mxGeometry>
        </mxCell>
        <mxCell id="fXf3r-uobzJEQX9jouKG-83" value="" style="endArrow=classic;html=1;fontSize=11;" parent="1" source="fXf3r-uobzJEQX9jouKG-35" target="fXf3r-uobzJEQX9jouKG-98" edge="1">
          <mxGeometry x="-931.8722769473685" y="-1040.6184614455526" width="42.82684210526316" height="42.827091280585385" as="geometry">
            <mxPoint x="-484.68350799005617" y="-600.3746527420099" as="sourcePoint" />
            <mxPoint x="-422.55497181611804" y="-576.9648877739801" as="targetPoint" />
          </mxGeometry>
        </mxCell>
        <mxCell id="fXf3r-uobzJEQX9jouKG-84" value="" style="endArrow=classic;html=1;fontSize=11;" parent="1" source="fXf3r-uobzJEQX9jouKG-34" target="fXf3r-uobzJEQX9jouKG-99" edge="1">
          <mxGeometry x="-931.8722769473685" y="-1040.6184614455526" width="42.82684210526316" height="42.827091280585385" as="geometry">
            <mxPoint x="-536.3401858894175" y="-600.3746527420096" as="sourcePoint" />
            <mxPoint x="-465.1268138331298" y="-576.9648877739526" as="targetPoint" />
          </mxGeometry>
        </mxCell>
        <mxCell id="fXf3r-uobzJEQX9jouKG-85" value="" style="endArrow=classic;html=1;fontSize=11;" parent="1" source="fXf3r-uobzJEQX9jouKG-34" target="fXf3r-uobzJEQX9jouKG-97" edge="1">
          <mxGeometry x="-933.5853506315791" y="-1040.6184614455526" width="42.82684210526316" height="42.827091280585385" as="geometry">
            <mxPoint x="-476.6670784292105" y="-508.580978933701" as="sourcePoint" />
            <mxPoint x="-353.15236111087313" y="-576.9648877739937" as="targetPoint" />
          </mxGeometry>
        </mxCell>
        <mxCell id="fXf3r-uobzJEQX9jouKG-87" value="" style="endArrow=classic;html=1;fontSize=11;" parent="1" source="fXf3r-uobzJEQX9jouKG-33" target="fXf3r-uobzJEQX9jouKG-98" edge="1">
          <mxGeometry x="-933.5853506315791" y="-1040.6184614455526" width="42.82684210526316" height="42.827091280585385" as="geometry">
            <mxPoint x="-476.6670784292105" y="-508.580978933701" as="sourcePoint" />
            <mxPoint x="-395.72420312782924" y="-576.9648877739803" as="targetPoint" />
          </mxGeometry>
        </mxCell>
        <mxCell id="KKFM_KyTwlKslKXIKcW2-16" style="edgeStyle=orthogonalEdgeStyle;rounded=0;jumpStyle=gap;orthogonalLoop=1;jettySize=auto;html=1;entryX=1;entryY=0.5;entryDx=0;entryDy=0;fontSize=11;" parent="1" source="fXf3r-uobzJEQX9jouKG-97" target="fXf3r-uobzJEQX9jouKG-25" edge="1">
          <mxGeometry x="-936.1549611578948" y="-1040.6184614455526" as="geometry">
            <Array as="points">
              <mxPoint x="-302.31769799999995" y="-543.2845812406268" />
              <mxPoint x="-302.31769799999995" y="-684.6139824665586" />
              <mxPoint x="-315.1657506315789" y="-684.6139824665586" />
            </Array>
          </mxGeometry>
        </mxCell>
        <mxCell id="fXf3r-uobzJEQX9jouKG-97" value="P4" style="ellipse;whiteSpace=wrap;html=1;fontSize=11;" parent="1" vertex="1">
          <mxGeometry x="-359.04053344302633" y="-566.094058558876" width="35.55784219473684" height="35.55806065242117" as="geometry" />
        </mxCell>
        <mxCell id="KKFM_KyTwlKslKXIKcW2-14" style="edgeStyle=orthogonalEdgeStyle;rounded=0;jumpStyle=gap;orthogonalLoop=1;jettySize=auto;html=1;entryX=1;entryY=0.5;entryDx=0;entryDy=0;fontSize=11;" parent="1" source="fXf3r-uobzJEQX9jouKG-98" target="fXf3r-uobzJEQX9jouKG-24" edge="1">
          <mxGeometry x="-933.5853506315791" y="-1040.6184614455526" as="geometry">
            <mxPoint x="-392.2172032167106" y="-673.0370094511488" as="targetPoint" />
            <Array as="points">
              <mxPoint x="-368.2710348421053" y="-543.2845812406268" />
              <mxPoint x="-368.2710348421053" y="-684.6139824665586" />
              <mxPoint x="-383.688698" y="-684.6139824665586" />
            </Array>
          </mxGeometry>
        </mxCell>
        <mxCell id="fXf3r-uobzJEQX9jouKG-98" value="P3" style="ellipse;whiteSpace=wrap;html=1;fontSize=11;" parent="1" vertex="1">
          <mxGeometry x="-427.58660730618425" y="-566.094058558876" width="35.55784219473684" height="35.55806065242117" as="geometry" />
        </mxCell>
        <mxCell id="KKFM_KyTwlKslKXIKcW2-13" style="edgeStyle=orthogonalEdgeStyle;rounded=0;jumpStyle=gap;orthogonalLoop=1;jettySize=auto;html=1;fontSize=11;entryX=0;entryY=0.5;entryDx=0;entryDy=0;" parent="1" source="fXf3r-uobzJEQX9jouKG-99" target="fXf3r-uobzJEQX9jouKG-23" edge="1">
          <mxGeometry x="-931.8722769473685" y="-1040.6184614455526" as="geometry">
            <Array as="points">
              <mxPoint x="-520.7345927368422" y="-543.2845812406268" />
              <mxPoint x="-520.7345927368422" y="-684.6139824665586" />
              <mxPoint x="-505.3169295789474" y="-684.6139824665586" />
            </Array>
            <mxPoint x="-503.60385589473685" y="-673.16201825813" as="targetPoint" />
          </mxGeometry>
        </mxCell>
        <mxCell id="fXf3r-uobzJEQX9jouKG-99" value="P2" style="ellipse;whiteSpace=wrap;html=1;fontSize=11;" parent="1" vertex="1">
          <mxGeometry x="-496.98921801144735" y="-566.094058558876" width="35.55784219473684" height="35.55806065242117" as="geometry" />
        </mxCell>
        <mxCell id="fXf3r-uobzJEQX9jouKG-118" value="" style="endArrow=classic;html=1;fontSize=11;jumpStyle=gap;" parent="1" source="fXf3r-uobzJEQX9jouKG-99" target="fXf3r-uobzJEQX9jouKG-116" edge="1">
          <mxGeometry x="-1067.9074582105263" y="-1138.1271828731897" width="42.82684210526316" height="42.827091280585385" as="geometry">
            <mxPoint x="-627.8791610506578" y="-603.8673215705614" as="sourcePoint" />
            <mxPoint x="-605.6555096789473" y="-626.0911094783247" as="targetPoint" />
            <Array as="points">
              <mxPoint x="-588.7350526315789" y="-496.2604350145441" />
            </Array>
          </mxGeometry>
        </mxCell>
        <mxCell id="fXf3r-uobzJEQX9jouKG-119" value="" style="endArrow=classic;html=1;fontSize=11;jumpStyle=gap;" parent="1" source="fXf3r-uobzJEQX9jouKG-98" target="fXf3r-uobzJEQX9jouKG-116" edge="1">
          <mxGeometry x="-1067.9074582105263" y="-1138.1271828731897" width="42.82684210526316" height="42.827091280585385" as="geometry">
            <mxPoint x="-627.8791610506578" y="-603.8673215705614" as="sourcePoint" />
            <mxPoint x="-605.6555096789473" y="-626.0911094783247" as="targetPoint" />
            <Array as="points">
              <mxPoint x="-537.3428421052631" y="-496.2604350145441" />
            </Array>
          </mxGeometry>
        </mxCell>
        <mxCell id="fXf3r-uobzJEQX9jouKG-120" value="" style="endArrow=classic;html=1;fontSize=11;jumpStyle=gap;" parent="1" source="fXf3r-uobzJEQX9jouKG-97" target="fXf3r-uobzJEQX9jouKG-116" edge="1">
          <mxGeometry x="-1067.9074582105263" y="-1138.1271828731897" width="42.82684210526316" height="42.827091280585385" as="geometry">
            <mxPoint x="-627.8791610506578" y="-603.8673215705614" as="sourcePoint" />
            <mxPoint x="-605.6555096789473" y="-626.0911094783247" as="targetPoint" />
            <Array as="points">
              <mxPoint x="-477.3852631578947" y="-496.2604350145441" />
            </Array>
          </mxGeometry>
        </mxCell>
        <mxCell id="9TntlFMedyVJn60BAklY-12" value="P5" style="ellipse;whiteSpace=wrap;html=1;fontSize=11;" parent="1" vertex="1">
          <mxGeometry x="-221.5333400831579" y="-805.7729811882882" width="35.55784219473684" height="35.55806065242117" as="geometry" />
        </mxCell>
        <mxCell id="9TntlFMedyVJn60BAklY-13" value="P6" style="ellipse;whiteSpace=wrap;html=1;fontSize=11;" parent="1" vertex="1">
          <mxGeometry x="-152.98726622000004" y="-805.7729811882882" width="35.55784219473684" height="35.55806065242117" as="geometry" />
        </mxCell>
        <mxCell id="9TntlFMedyVJn60BAklY-14" value="P7" style="ellipse;whiteSpace=wrap;html=1;fontSize=11;" parent="1" vertex="1">
          <mxGeometry x="-84.44119235684207" y="-805.7729811882882" width="35.55784219473684" height="35.55806065242117" as="geometry" />
        </mxCell>
        <mxCell id="KKFM_KyTwlKslKXIKcW2-25" style="edgeStyle=orthogonalEdgeStyle;rounded=0;jumpStyle=gap;orthogonalLoop=1;jettySize=auto;html=1;strokeWidth=1;fontSize=11;jumpSize=5;" parent="1" source="fXf3r-uobzJEQX9jouKG-116" target="fXf3r-uobzJEQX9jouKG-5" edge="1">
          <mxGeometry x="-1108.6529157894738" y="-1028.1729087194146" as="geometry">
            <Array as="points">
              <mxPoint x="-811.4346315789473" y="-444.8679254778416" />
              <mxPoint x="-811.4346315789473" y="-888.5565911447062" />
            </Array>
            <mxPoint x="-786.5552663148683" y="-445.2450353789013" as="sourcePoint" />
            <mxPoint x="-787.0434923148684" y="-888.3482431330708" as="targetPoint" />
          </mxGeometry>
        </mxCell>
        <mxCell id="KKFM_KyTwlKslKXIKcW2-28" value="Post Processing" style="rounded=0;whiteSpace=wrap;html=1;fontSize=10;fillColor=#fff2cc;" parent="1" vertex="1">
          <mxGeometry x="-367.50017845098677" y="-255.5580606524212" width="52.44781723723684" height="35.55806065242117" as="geometry" />
        </mxCell>
        <mxCell id="KKFM_KyTwlKslKXIKcW2-35" style="edgeStyle=orthogonalEdgeStyle;rounded=0;jumpStyle=gap;orthogonalLoop=1;jettySize=auto;html=1;fontSize=11;" parent="1" source="9TntlFMedyVJn60BAklY-38" target="KKFM_KyTwlKslKXIKcW2-28" edge="1">
          <mxGeometry x="-449.7276885263157" y="-1042.2801525872394" as="geometry" />
        </mxCell>
        <mxCell id="KKFM_KyTwlKslKXIKcW2-29" value="Post Processing" style="rounded=0;whiteSpace=wrap;html=1;fontSize=10;fillColor=#fff2cc;" parent="1" vertex="1">
          <mxGeometry x="-230.5682031141447" y="-255.5580606524212" width="52.44781723723684" height="35.55806065242117" as="geometry" />
        </mxCell>
        <mxCell id="KKFM_KyTwlKslKXIKcW2-30" value="Post Processing" style="rounded=0;whiteSpace=wrap;html=1;fontSize=10;fillColor=#fff2cc;" parent="1" vertex="1">
          <mxGeometry x="-162.02212925098684" y="-255.5580606524212" width="52.44781723723684" height="35.55806065242117" as="geometry" />
        </mxCell>
        <mxCell id="KKFM_KyTwlKslKXIKcW2-31" value="Post Processing" style="rounded=0;whiteSpace=wrap;html=1;fontSize=10;fillColor=#fff2cc;" parent="1" vertex="1">
          <mxGeometry x="-779.5544373828948" y="-255.5580606524212" width="52.44781723723684" height="35.55806065242117" as="geometry" />
        </mxCell>
        <mxCell id="KKFM_KyTwlKslKXIKcW2-32" value="Post Processing" style="rounded=0;whiteSpace=wrap;html=1;fontSize=10;fillColor=#fff2cc;" parent="1" vertex="1">
          <mxGeometry x="-641.6997256127631" y="-257.87072358157275" width="52.44781723723684" height="35.55806065242117" as="geometry" />
        </mxCell>
        <mxCell id="KKFM_KyTwlKslKXIKcW2-33" value="Post Processing" style="rounded=0;whiteSpace=wrap;html=1;fontSize=10;fillColor=#fff2cc;" parent="1" vertex="1">
          <mxGeometry x="-505.1788879601315" y="-255.5580606524212" width="52.44781723723684" height="35.55806065242117" as="geometry" />
        </mxCell>
        <mxCell id="KKFM_KyTwlKslKXIKcW2-34" value="Post Processing" style="rounded=0;whiteSpace=wrap;html=1;fontSize=10;fillColor=#fff2cc;" parent="1" vertex="1">
          <mxGeometry x="-436.6328140969737" y="-255.5580606524212" width="52.44781723723684" height="35.55806065242117" as="geometry" />
        </mxCell>
        <mxCell id="KKFM_KyTwlKslKXIKcW2-36" style="edgeStyle=orthogonalEdgeStyle;rounded=0;jumpStyle=gap;orthogonalLoop=1;jettySize=auto;html=1;fontSize=11;" parent="1" source="9TntlFMedyVJn60BAklY-39" target="KKFM_KyTwlKslKXIKcW2-29" edge="1">
          <mxGeometry x="-383.91139757894734" y="-1042.2801525872394" as="geometry" />
        </mxCell>
        <mxCell id="KKFM_KyTwlKslKXIKcW2-37" style="edgeStyle=orthogonalEdgeStyle;rounded=0;jumpStyle=gap;orthogonalLoop=1;jettySize=auto;html=1;fontSize=11;" parent="1" source="9TntlFMedyVJn60BAklY-40" target="KKFM_KyTwlKslKXIKcW2-30" edge="1">
          <mxGeometry x="-386.48100810526313" y="-1042.2801525872394" as="geometry" />
        </mxCell>
        <mxCell id="KKFM_KyTwlKslKXIKcW2-38" style="edgeStyle=orthogonalEdgeStyle;rounded=0;jumpStyle=gap;orthogonalLoop=1;jettySize=auto;html=1;fontSize=11;" parent="1" source="YqNIB3fvelUlKw-ISLuf-3" target="KKFM_KyTwlKslKXIKcW2-31" edge="1">
          <mxGeometry x="-1108.4644776842106" y="-1042.2801525872394" as="geometry" />
        </mxCell>
        <mxCell id="KKFM_KyTwlKslKXIKcW2-39" style="edgeStyle=orthogonalEdgeStyle;rounded=0;jumpStyle=gap;orthogonalLoop=1;jettySize=auto;html=1;fontSize=11;" parent="1" source="fXf3r-uobzJEQX9jouKG-131" target="KKFM_KyTwlKslKXIKcW2-32" edge="1">
          <mxGeometry x="-1067.5048858947368" y="-1044.592815516391" as="geometry" />
        </mxCell>
        <mxCell id="KKFM_KyTwlKslKXIKcW2-40" style="edgeStyle=orthogonalEdgeStyle;rounded=0;jumpStyle=gap;orthogonalLoop=1;jettySize=auto;html=1;fontSize=11;" parent="1" source="fXf3r-uobzJEQX9jouKG-130" target="KKFM_KyTwlKslKXIKcW2-33" edge="1">
          <mxGeometry x="-1002.0997326315791" y="-1042.2801525872394" as="geometry" />
        </mxCell>
        <mxCell id="KKFM_KyTwlKslKXIKcW2-41" style="edgeStyle=orthogonalEdgeStyle;rounded=0;jumpStyle=gap;orthogonalLoop=1;jettySize=auto;html=1;fontSize=11;" parent="1" source="fXf3r-uobzJEQX9jouKG-129" target="KKFM_KyTwlKslKXIKcW2-34" edge="1">
          <mxGeometry x="-1004.6693431578949" y="-1042.2801525872394" as="geometry" />
        </mxCell>
        <mxCell id="4J-UiS3wNsruWkaUNkyr-2" value="MBH" style="text;html=1;strokeColor=none;fillColor=none;align=center;verticalAlign=middle;whiteSpace=wrap;rounded=0;fontSize=18;" parent="1" vertex="1">
          <mxGeometry x="-150.0511435789474" y="-1071" width="34.26147368421053" height="17.130836512234154" as="geometry" />
        </mxCell>
        <mxCell id="4J-UiS3wNsruWkaUNkyr-4" value="Root/Noise" style="text;html=1;strokeColor=none;fillColor=none;align=center;verticalAlign=middle;whiteSpace=wrap;rounded=0;fontSize=18;" parent="1" vertex="1">
          <mxGeometry x="-770.8519160000001" y="-1071" width="34.26147368421053" height="17.130836512234154" as="geometry" />
        </mxCell>
        <mxCell id="4J-UiS3wNsruWkaUNkyr-5" value="GBMCMC" style="text;html=1;strokeColor=none;fillColor=none;align=center;verticalAlign=middle;whiteSpace=wrap;rounded=0;fontSize=18;" parent="1" vertex="1">
          <mxGeometry x="-422.241421263158" y="-1071" width="34.26147368421053" height="17.130836512234154" as="geometry" />
        </mxCell>
        <mxCell id="4J-UiS3wNsruWkaUNkyr-6" value="" style="shape=curlyBracket;whiteSpace=wrap;html=1;rounded=1;strokeColor=#000000;fillColor=#E6E6E6;strokeWidth=2;fontSize=11;direction=south;" parent="1" vertex="1">
          <mxGeometry x="-223.1479976842105" y="-1045.3037452316487" width="182.9734002105263" height="8.890904149849527" as="geometry" />
        </mxCell>
        <mxCell id="4J-UiS3wNsruWkaUNkyr-7" value="" style="shape=curlyBracket;whiteSpace=wrap;html=1;rounded=1;strokeColor=#000000;fillColor=#E6E6E6;strokeWidth=2;fontSize=11;direction=south;" parent="1" vertex="1">
          <mxGeometry x="-496.59738452631586" y="-1045.3037452316487" width="182.9734002105263" height="8.890904149849527" as="geometry" />
        </mxCell>
        <mxCell id="YqNIB3fvelUlKw-ISLuf-3" value="P0" style="ellipse;whiteSpace=wrap;html=1;fontSize=11;" parent="1" vertex="1">
          <mxGeometry x="-771.2902487289474" y="-359.2111964409729" width="35.55784219473684" height="35.55806065242117" as="geometry" />
        </mxCell>
        <mxCell id="YqNIB3fvelUlKw-ISLuf-4" style="edgeStyle=orthogonalEdgeStyle;rounded=0;jumpStyle=gap;orthogonalLoop=1;jettySize=auto;html=1;fontSize=11;" parent="1" source="fXf3r-uobzJEQX9jouKG-116" target="YqNIB3fvelUlKw-ISLuf-3" edge="1">
          <mxGeometry x="-1108.4644776842106" y="-1042.2801525872394" as="geometry">
            <mxPoint x="-752.5862678421054" y="-427.466005052691" as="sourcePoint" />
            <mxPoint x="-753.341279876161" y="-255.5580606524212" as="targetPoint" />
          </mxGeometry>
        </mxCell>
        <mxCell id="LHhICdm2j_HilG0s3vL_-1" value="" style="rounded=1;whiteSpace=wrap;html=1;strokeColor=#FFB000;fontSize=11;fillColor=#F9D995;fillOpacity=50;" parent="1" vertex="1">
          <mxGeometry x="-661.2066348421052" y="-718.9613096735882" width="102.78442105263157" height="205.3730335269192" as="geometry" />
        </mxCell>
        <mxCell id="LHhICdm2j_HilG0s3vL_-2" value="P1" style="ellipse;whiteSpace=wrap;html=1;fontSize=11;" parent="1" vertex="1">
          <mxGeometry x="-628.1571554361185" y="-805.7729811882882" width="35.55784219473684" height="35.55806065242117" as="geometry" />
        </mxCell>
        <mxCell id="LHhICdm2j_HilG0s3vL_-8" style="rounded=0;orthogonalLoop=1;jettySize=auto;html=1;exitX=1;exitY=1;exitDx=0;exitDy=0;entryX=0;entryY=0.5;entryDx=0;entryDy=0;" parent="1" source="fXf3r-uobzJEQX9jouKG-5" target="LHhICdm2j_HilG0s3vL_-2" edge="1">
          <mxGeometry relative="1" as="geometry">
            <Array as="points">
              <mxPoint x="-708.6502105263157" y="-830.3117470031101" />
            </Array>
          </mxGeometry>
        </mxCell>
        <mxCell id="LHhICdm2j_HilG0s3vL_-3" value="VBMCMC Step 0" style="rounded=0;whiteSpace=wrap;html=1;fontSize=10;fillColor=#fff2cc;" parent="1" vertex="1">
          <mxGeometry x="-636.3347642753947" y="-702.8076253359234" width="52.44781723723684" height="35.55806065242117" as="geometry" />
        </mxCell>
        <mxCell id="LHhICdm2j_HilG0s3vL_-5" value="" style="endArrow=classic;html=1;entryX=0.5;entryY=0;entryDx=0;entryDy=0;fontSize=11;" parent="1" source="LHhICdm2j_HilG0s3vL_-2" target="LHhICdm2j_HilG0s3vL_-3" edge="1">
          <mxGeometry x="-967.2900753684211" y="-1032.4556178474731" as="geometry">
            <mxPoint x="-611.7116534210527" y="-702.6546052962668" as="sourcePoint" />
            <mxPoint x="-496.14866628815787" y="-604.8699385021087" as="targetPoint" />
          </mxGeometry>
        </mxCell>
        <mxCell id="LHhICdm2j_HilG0s3vL_-6" style="edgeStyle=orthogonalEdgeStyle;rounded=0;jumpStyle=gap;orthogonalLoop=1;jettySize=auto;html=1;fontSize=11;" parent="1" source="LHhICdm2j_HilG0s3vL_-7" edge="1">
          <mxGeometry x="-966.133750631579" y="-1040.6184614455526" as="geometry">
            <Array as="points">
              <mxPoint x="-652.9410543157895" y="-543.370235423188" />
              <mxPoint x="-652.9410543157895" y="-684.6996366491198" />
            </Array>
            <mxPoint x="-635.8103174736842" y="-684.6996366491198" as="targetPoint" />
          </mxGeometry>
        </mxCell>
        <mxCell id="LHhICdm2j_HilG0s3vL_-9" style="rounded=0;orthogonalLoop=1;jettySize=auto;html=1;exitX=0;exitY=1;exitDx=0;exitDy=0;" parent="1" source="LHhICdm2j_HilG0s3vL_-7" target="fXf3r-uobzJEQX9jouKG-116" edge="1">
          <mxGeometry relative="1" as="geometry">
            <Array as="points">
              <mxPoint x="-665.8233684210527" y="-496.2604350145441" />
            </Array>
          </mxGeometry>
        </mxCell>
        <mxCell id="LHhICdm2j_HilG0s3vL_-7" value="P1" style="ellipse;whiteSpace=wrap;html=1;fontSize=11;" parent="1" vertex="1">
          <mxGeometry x="-628.1458116763158" y="-566.094058558876" width="35.55784219473684" height="35.55806065242117" as="geometry" />
        </mxCell>
        <mxCell id="LHhICdm2j_HilG0s3vL_-11" value="VBMCMC Step 1" style="rounded=0;whiteSpace=wrap;html=1;fontSize=10;fillColor=#fff2cc;" parent="1" vertex="1">
          <mxGeometry x="-636.0349763806579" y="-660.7171600253641" width="52.44781723723684" height="35.55806065242117" as="geometry" />
        </mxCell>
        <mxCell id="LHhICdm2j_HilG0s3vL_-4" value="" style="endArrow=classic;html=1;exitX=0.5;exitY=1;exitDx=0;exitDy=0;fontSize=11;startArrow=none;" parent="1" source="LHhICdm2j_HilG0s3vL_-11" target="LHhICdm2j_HilG0s3vL_-7" edge="1">
          <mxGeometry x="-966.133750631579" y="-1040.6184614455526" width="42.82684210526316" height="42.827091280585385" as="geometry">
            <mxPoint x="-512.7712626486841" y="-657.4803579157146" as="sourcePoint" />
            <mxPoint x="-610.5553286842105" y="-621.9222972632933" as="targetPoint" />
          </mxGeometry>
        </mxCell>
        <mxCell id="LHhICdm2j_HilG0s3vL_-12" value="" style="endArrow=none;html=1;exitX=0.5;exitY=1;exitDx=0;exitDy=0;fontSize=11;" parent="1" source="LHhICdm2j_HilG0s3vL_-3" target="LHhICdm2j_HilG0s3vL_-11" edge="1">
          <mxGeometry x="-966.133750631579" y="-1040.6184614455526" width="42.82684210526316" height="42.827091280585385" as="geometry">
            <mxPoint x="-610.1108556567763" y="-667.2495646835022" as="sourcePoint" />
            <mxPoint x="-610.3668905789474" y="-566.094058558876" as="targetPoint" />
          </mxGeometry>
        </mxCell>
        <mxCell id="LHhICdm2j_HilG0s3vL_-13" value="VBMCMC Step 2" style="rounded=0;whiteSpace=wrap;html=1;fontSize=10;fillColor=#fff2cc;" parent="1" vertex="1">
          <mxGeometry x="-636.6002906964474" y="-616.1769850935552" width="52.44781723723684" height="35.55806065242117" as="geometry" />
        </mxCell>
        <mxCell id="LHhICdm2j_HilG0s3vL_-14" value="P7" style="ellipse;whiteSpace=wrap;html=1;fontSize=11;" parent="1" vertex="1">
          <mxGeometry x="-83.05425042861827" y="-360.3247008142682" width="35.55784219473684" height="35.55806065242117" as="geometry" />
        </mxCell>
        <mxCell id="LHhICdm2j_HilG0s3vL_-15" value="Post Processing" style="rounded=0;whiteSpace=wrap;html=1;fontSize=10;fillColor=#fff2cc;" parent="1" vertex="1">
          <mxGeometry x="-91.94371097730254" y="-255.5580606524212" width="52.44781723723684" height="35.55806065242117" as="geometry" />
        </mxCell>
        <mxCell id="LHhICdm2j_HilG0s3vL_-16" style="edgeStyle=orthogonalEdgeStyle;rounded=0;jumpStyle=gap;orthogonalLoop=1;jettySize=auto;html=1;fontSize=11;" parent="1" source="LHhICdm2j_HilG0s3vL_-14" target="LHhICdm2j_HilG0s3vL_-15" edge="1">
          <mxGeometry x="-174.1712210526316" y="-1042.2801525872394" as="geometry" />
        </mxCell>
        <mxCell id="LHhICdm2j_HilG0s3vL_-17" value="&lt;font style=&quot;font-size: 11px;&quot;&gt;P1&lt;/font&gt;" style="ellipse;whiteSpace=wrap;html=1;fontSize=11;" parent="1" vertex="1">
          <mxGeometry x="-633.2556642219737" y="-1028.1729087194146" width="35.55784219473684" height="35.55806065242117" as="geometry" />
        </mxCell>
        <mxCell id="LHhICdm2j_HilG0s3vL_-18" value="VBMCMC" style="text;html=1;strokeColor=none;fillColor=none;align=center;verticalAlign=middle;whiteSpace=wrap;rounded=0;fontSize=18;" parent="1" vertex="1">
          <mxGeometry x="-631.5105025263158" y="-1071" width="34.26147368421053" height="17.130836512234154" as="geometry" />
        </mxCell>
      </root>
    </mxGraphModel>
  </diagram>
</mxfile>
